<svg width="24" height="24" viewBox="0 0 24 24" fill="none" xmlns="http://www.w3.org/2000/svg">
<mask id="mask0_15418_39490" style="mask-type:alpha" maskUnits="userSpaceOnUse" x="2" y="2" width="20" height="20">
<path fill-rule="evenodd" clip-rule="evenodd" d="M15.2771 3.7025C16.5658 2.41378 18.6553 2.41378 19.944 3.7025L20.2976 4.05607C21.5863 5.3448 21.5863 7.43424 20.2976 8.72296L8.22876 20.7917C7.98651 21.034 7.6584 21.1708 7.31582 21.1724L4.1188 21.188C3.40728 21.1915 2.82745 20.6229 2.81274 19.9156L2.8125 19.8818L2.82759 16.6843C2.82921 16.3417 2.96607 16.0135 3.20835 15.7712L15.2771 3.7025ZM4.427 16.8153L4.41387 19.5866L7.18462 19.5732L16.8919 9.86588L14.1342 7.10817L4.427 16.8153ZM18.8126 4.83385C18.1488 4.16998 17.0724 4.16998 16.4085 4.83385L15.2655 5.97682L18.0232 8.73454L19.1662 7.59162C19.8301 6.92773 19.8301 5.85131 19.1662 5.18742L18.8126 4.83385Z" fill="black"/>
</mask>
<g mask="url(#mask0_15418_39490)">
<rect width="24" height="24" fill="white"/>
</g>
</svg>
